<?xml version="1.0" encoding="UTF-8"?>
<!DOCTYPE svg PUBLIC "-//W3C//DTD SVG 1.1//EN" "http://www.w3.org/Graphics/SVG/1.1/DTD/svg11.dtd">
<!-- Creator: CorelDRAW 2021 (64-Bit) -->
<svg xmlns="http://www.w3.org/2000/svg" xml:space="preserve" width="8.23437in" height="8.18457in" version="1.1" style="shape-rendering:geometricPrecision; text-rendering:geometricPrecision; image-rendering:optimizeQuality; fill-rule:evenodd; clip-rule:evenodd"
viewBox="0 0 659.1 655.11"
 xmlns:xlink="http://www.w3.org/1999/xlink"
 xmlns:xodm="http://www.corel.com/coreldraw/odm/2003">
 <defs>
  <style type="text/css">
   <![CDATA[
    .fil0 {fill:#FEFEFE;fill-rule:nonzero}
   ]]>
  </style>
 </defs>
 <g id="Capa_x0020_1">
  <metadata id="CorelCorpID_0Corel-Layer"/>
  <path class="fil0" d="M659.1 329.55c0,-182.05 -147.5,-329.55 -329.55,-329.55 -182.05,0 -329.55,147.5 -329.55,329.55 0,164.48 120.51,300.82 278.06,325.56l0 -230.3 -83.72 0 0 -95.26 83.72 0 0 -72.61c0,-82.59 49.17,-128.21 124.47,-128.21 36.06,0 73.78,6.43 73.78,6.43l0 81.06 -41.57 0c-40.93,0 -53.7,25.41 -53.7,51.47l0 61.86 91.4 0 -14.62 95.26 -76.78 0 0 230.3c157.55,-24.74 278.06,-161.08 278.06,-325.56z"/>
 </g>
</svg>
