<?xml version="1.0" encoding="UTF-8"?>
<!DOCTYPE svg PUBLIC "-//W3C//DTD SVG 1.1//EN" "http://www.w3.org/Graphics/SVG/1.1/DTD/svg11.dtd">
<!-- Creator: CorelDRAW 2021 (64-Bit) -->
<svg xmlns="http://www.w3.org/2000/svg" xml:space="preserve" width="0.531811in" height="0.441567in" version="1.1" style="shape-rendering:geometricPrecision; text-rendering:geometricPrecision; image-rendering:optimizeQuality; fill-rule:evenodd; clip-rule:evenodd"
viewBox="0 0 116.41 96.66"
 xmlns:xlink="http://www.w3.org/1999/xlink"
 xmlns:xodm="http://www.corel.com/coreldraw/odm/2003">
 <defs>
  <style type="text/css">
   <![CDATA[
    .fil0 {fill:#fff}
   ]]>
  </style>
 </defs>
 <g id="Capa_x0020_1">
  <metadata id="CorelCorpID_0Corel-Layer"/>
  <path class="fil0" d="M-0 1.41l0 9.23 34.75 -0.54c0,0 0.34,5.78 2.76,11.23 1.85,4.17 5.29,7.93 8.45,10.03 7.29,4.86 19.3,3.51 24.57,-1.89 5.26,-5.4 7.02,-8.5 8.23,-12.82 1.22,-4.32 1.22,-6.61 1.22,-6.61l15.5 0 0 76.57 -75.18 0 0 -69.51 -10.32 0 0 79.55 94.21 0 0 -86.61 12.22 0 0 -10.04 -116.41 0 0 1.41zm68.29 8.56l-22.64 0c-0.46,18.41 21.96,18.87 22.64,0z"/>
 </g>
</svg>
