<?xml version="1.0" encoding="UTF-8"?>
<!DOCTYPE svg PUBLIC "-//W3C//DTD SVG 1.1//EN" "http://www.w3.org/Graphics/SVG/1.1/DTD/svg11.dtd">
<!-- Creator: CorelDRAW 2021 (64-Bit) -->
<svg xmlns="http://www.w3.org/2000/svg" xml:space="preserve" width="0.606354in" height="0.43224in" version="1.1" style="shape-rendering:geometricPrecision; text-rendering:geometricPrecision; image-rendering:optimizeQuality; fill-rule:evenodd; clip-rule:evenodd"
viewBox="0 0 61.69 43.98"
 xmlns:xlink="http://www.w3.org/1999/xlink"
 xmlns:xodm="http://www.corel.com/coreldraw/odm/2003">
 <defs>
  <style type="text/css">
   <![CDATA[
    .fil0 {fill:#fff}
   ]]>
  </style>
 </defs>
 <g id="Capa_x0020_1">
  <metadata id="CorelCorpID_0Corel-Layer"/>
  <path class="fil0" d="M33.14 12.8c0,0 0.99,2.73 5.13,1.16 4.14,-1.57 6.77,-4.82 8.5,-4.55 1.73,0.27 2.54,1.65 2.16,3.38 -0.38,1.73 -9.78,8.07 -15.04,6.96 -5.26,-1.11 -11.2,-4.65 -14.06,-5.37 -2.86,-0.72 -8.34,-2.59 -11.66,0.57 -3.32,3.16 -4.46,8.98 -3.7,12.08 0.76,3.1 5.06,13.01 17.09,12.52 12.03,-0.49 24.38,-7.57 30.15,-13.77 5.77,-6.2 4.68,-11.32 4.25,-14.31 -0.44,-2.99 -5.93,-7.18 -8.49,-6.37 -2.56,0.82 -7.62,5.72 -10.45,6.59 -2.83,0.87 -3.89,1.11 -3.89,1.11zm-3.92 -2.3c0,0 9.9,-4.19 13.04,-7.42 3.15,-3.23 5.79,-4.06 10.18,-1.82 4.39,2.24 8.61,7.95 9.19,13.91 0.58,5.96 -3.39,14.16 -12.67,20.04 -9.27,5.88 -18.55,8.78 -28.65,8.78 -10.1,0 -16.64,-7.53 -18.55,-11.18 -1.9,-3.64 -3.33,-14.92 1.47,-19.72 4.8,-4.8 10.86,-5.65 14.03,-5.03 2.85,0.56 8.66,4.12 11.94,2.44z"/>
 </g>
</svg>
