<?xml version="1.0" encoding="UTF-8"?>
<!DOCTYPE svg PUBLIC "-//W3C//DTD SVG 1.1//EN" "http://www.w3.org/Graphics/SVG/1.1/DTD/svg11.dtd">
<!-- Creator: CorelDRAW 2021 (64-Bit) -->
<svg xmlns="http://www.w3.org/2000/svg" xml:space="preserve" width="0.521323in" height="0.462323in" version="1.1" style="shape-rendering:geometricPrecision; text-rendering:geometricPrecision; image-rendering:optimizeQuality; fill-rule:evenodd; clip-rule:evenodd"
viewBox="0 0 156.04 138.38"
 xmlns:xlink="http://www.w3.org/1999/xlink"
 xmlns:xodm="http://www.corel.com/coreldraw/odm/2003">
 <defs>
  <style type="text/css">
   <![CDATA[
    .fil0 {fill:#fff}
   ]]>
  </style>
 </defs>
 <g id="Capa_x0020_1">
  <metadata id="CorelCorpID_0Corel-Layer"/>
  <path class="fil0" d="M85.34 81.62c6.14,-2.09 8.37,-0.14 12.97,3.49 4.6,3.62 30.47,30.47 30.47,30.47 0,0 6.9,2.44 9.55,-2.58 2.65,-5.02 -3.9,-12.13 -5.72,-12.97 -1.81,-0.84 -5.58,-6.97 -4.32,-10.18 1.25,-3.21 7.39,-7.25 12.55,-4.04 5.16,3.21 15.34,14.78 15.2,23.98 -0.14,9.2 -8.79,23.43 -18.96,23.15 -10.18,-0.28 -13.52,-2.65 -16.45,-5.16 -2.93,-2.51 -38.21,-35.7 -38.21,-35.7 -0.81,-4.25 -2.95,-8.46 2.93,-10.46zm-76.56 -68.83c5.06,5.44 18.23,19.55 19.86,20.89 2.03,1.66 6.82,0.37 10.14,-4.98 3.32,-5.35 21.93,-18.06 48.29,-12.35 26.36,5.71 28.75,9.03 28.75,9.03 0,0 -17.14,12.16 -20.64,19.35 -3.5,7.19 -2.58,8.85 -2.58,8.85 0,0 -12.72,2.03 -23.41,11.06 -10.69,9.03 -13.64,26.36 -13.64,26.36 0,0 -14.19,4.42 -21.57,11.8 -7.37,7.37 -5.71,13.27 -5.71,13.27 0,0 -19.51,-20.62 -12.78,-47.23 6.73,-26.61 11.22,-29.49 11.22,-29.49 0,0 -6.89,-7.14 -12.66,-4.42 -5.77,2.72 -9.94,16.76 -13.15,32.15 -3.21,15.39 2.23,43.32 13.38,56.98 11.15,13.66 16.31,15.06 19.1,14.08 2.79,-0.98 0.98,-12.13 7.53,-19.52 6.55,-7.39 18.96,-14.78 25.37,-13.52 6.41,1.26 1.12,-9.76 4.74,-17.57 3.62,-7.81 14.08,-19.24 23.14,-20.21 9.06,-0.98 12.41,2.92 12.96,-2.23 0.56,-5.16 4.46,-21.19 13.38,-25.65 8.92,-4.46 16.59,-4.04 18.4,-5.02 1.81,-0.98 0.7,-11.57 -4.04,-14.22 -4.74,-2.65 -33.6,-23.84 -65.1,-19.66 -31.51,4.18 -37.5,17.56 -37.5,17.56 -2.58,-4.03 -18.48,-20.85 -23.7,-12.82 -2.56,3.94 -2.41,4.69 0.21,7.5z"/>
 </g>
</svg>
