<?xml version="1.0" encoding="UTF-8"?>
<!DOCTYPE svg PUBLIC "-//W3C//DTD SVG 1.1//EN" "http://www.w3.org/Graphics/SVG/1.1/DTD/svg11.dtd">
<!-- Creator: CorelDRAW 2021 (64-Bit) -->
<svg xmlns="http://www.w3.org/2000/svg" xml:space="preserve" width="0.444075in" height="0.520933in" version="1.1" style="shape-rendering:geometricPrecision; text-rendering:geometricPrecision; image-rendering:optimizeQuality; fill-rule:evenodd; clip-rule:evenodd"
viewBox="0 0 30.78 36.1"
 xmlns:xlink="http://www.w3.org/1999/xlink"
 xmlns:xodm="http://www.corel.com/coreldraw/odm/2003">
 <defs>
  <style type="text/css">
   <![CDATA[
    .fil0 {fill:#fff}
   ]]>
  </style>
 </defs>
 <g id="Capa_x0020_1">
  <metadata id="CorelCorpID_0Corel-Layer"/>
  <path class="fil0" d="M5.15 17.13c0,0 3.35,0.52 4.58,2.53 1.23,2.01 0.34,5.69 0.04,6.14 -0.3,0.45 -1.15,0.63 -1.19,1 -0.04,0.37 0,1.6 0.48,2.05 0.48,0.45 2.42,0.78 3.16,0.19 0.74,-0.6 2.05,-3.61 2.12,-4.91 0.07,-1.3 0.74,-4.28 -1.34,-6.92 -2.08,-2.64 -2.75,-3.27 -4.54,-3.42 -1.79,-0.15 -3.35,-0.26 -3.57,0.15 -0.22,0.41 -0.41,1.3 -0.26,1.86 0.15,0.56 0.52,1.34 0.52,1.34zm0.62 -12.38c0,0 -1.92,0.34 -2.26,1.36 -0.34,1.02 -0.34,1.02 -0.34,1.02l0 18.78c0,0 8.54,6 10.24,6.73 1.7,0.74 9.28,-1.75 11.31,-3.11 2.04,-1.36 1.81,-3.68 1.81,-3.68l-0.24 -9.05c-0.07,-2.59 -9.42,-13.57 -9.95,-13.69 -0.73,-0.17 -6.62,1.19 -6.62,1.19 0,0 0.57,1.02 2.09,1.81 1.53,0.79 2.49,0.62 2.6,0.11 0.11,-0.51 0.45,-1.24 1.47,-1.19 1.02,0.06 2.38,1.41 1.98,2.38 -0.4,0.96 -2.32,2.66 -4.02,2.43 -4.88,-0.65 -4.88,-1.69 -8.09,-5.09zm-5.77 0.34l0 22.46c0,0 9.73,8.26 15.22,8.54 5.49,0.28 12.16,-3.51 13.58,-5.15 1.41,-1.64 1.92,-3.22 1.98,-4.64 0.06,-1.41 -0.34,-10.18 -0.34,-10.18 0,0 -3.34,-6.73 -5.71,-9.16 -2.38,-2.43 -6.39,-6.96 -6.39,-6.96 0,0 -7.86,0.4 -11.03,0.96 -3.17,0.57 -5.43,1.13 -6.11,2.21 -0.68,1.07 -1.19,1.92 -1.19,1.92z"/>
 </g>
</svg>
