<?xml version="1.0" encoding="UTF-8"?>
<!DOCTYPE svg PUBLIC "-//W3C//DTD SVG 1.1//EN" "http://www.w3.org/Graphics/SVG/1.1/DTD/svg11.dtd">
<!-- Creator: CorelDRAW 2021 (64-Bit) -->
<svg xmlns="http://www.w3.org/2000/svg" xml:space="preserve" width="8.50476in" height="8.50286in" version="1.1" style="shape-rendering:geometricPrecision; text-rendering:geometricPrecision; image-rendering:optimizeQuality; fill-rule:evenodd; clip-rule:evenodd"
viewBox="0 0 1459.08 1458.75"
 xmlns:xlink="http://www.w3.org/1999/xlink"
 xmlns:xodm="http://www.corel.com/coreldraw/odm/2003">
 <defs>
  <style type="text/css">
   <![CDATA[
    .fil0 {fill:#FEFEFE;fill-rule:nonzero}
   ]]>
  </style>
 </defs>
 <g id="Capa_x0020_1">
  <metadata id="CorelCorpID_0Corel-Layer"/>
  <path class="fil0" d="M729.7 355.37c-207.02,0 -374.01,166.98 -374.01,374.01 0,207.02 166.98,374.01 374.01,374.01 207.02,0 374.01,-166.98 374.01,-374.01 0,-207.02 -166.98,-374.01 -374.01,-374.01zm0 617.16c-133.78,0 -243.15,-109.04 -243.15,-243.15 0,-134.11 109.04,-243.15 243.15,-243.15 134.11,0 243.15,109.04 243.15,243.15 0,134.11 -109.37,243.15 -243.15,243.15zm476.54 -632.46c0,48.5 -39.06,87.24 -87.24,87.24 -48.5,0 -87.24,-39.06 -87.24,-87.24 0,-48.17 39.06,-87.24 87.24,-87.24 48.17,0 87.24,39.06 87.24,87.24zm247.71 88.54c-5.53,-116.86 -32.22,-220.37 -117.83,-305.65 -85.28,-85.28 -188.79,-111.97 -305.65,-117.83 -120.44,-6.84 -481.42,-6.84 -601.86,0 -116.53,5.53 -220.04,32.22 -305.65,117.51 -85.61,85.28 -111.97,188.79 -117.83,305.65 -6.84,120.44 -6.84,481.42 0,601.86 5.53,116.86 32.22,220.37 117.83,305.65 85.61,85.28 188.79,111.97 305.65,117.83 120.44,6.84 481.42,6.84 601.86,0 116.86,-5.53 220.37,-32.22 305.65,-117.83 85.28,-85.28 111.97,-188.79 117.83,-305.65 6.84,-120.44 6.84,-481.1 0,-601.53zm-155.59 730.76c-25.39,63.8 -74.54,112.95 -138.67,138.67 -96.02,38.08 -323.88,29.3 -429.99,29.3 -106.11,0 -334.29,8.46 -429.99,-29.3 -63.8,-25.39 -112.95,-74.54 -138.67,-138.67 -38.08,-96.02 -29.3,-323.88 -29.3,-429.99 0,-106.11 -8.46,-334.29 29.3,-429.99 25.39,-63.8 74.54,-112.95 138.67,-138.67 96.02,-38.08 323.88,-29.3 429.99,-29.3 106.11,0 334.29,-8.46 429.99,29.3 63.8,25.39 112.95,74.54 138.67,138.67 38.08,96.02 29.3,323.88 29.3,429.99 0,106.11 8.79,334.29 -29.3,429.99z"/>
 </g>
</svg>
