<?xml version="1.0" encoding="utf-8"?>
<!-- Generator: Adobe Illustrator 24.0.2, SVG Export Plug-In . SVG Version: 6.00 Build 0)  -->
<svg version="1.1" id="Layer_1" xmlns="http://www.w3.org/2000/svg" xmlns:xlink="http://www.w3.org/1999/xlink" x="0px" y="0px"
	 viewBox="0 0 130 59.6" style="enable-background:new 0 0 130 59.6;" xml:space="preserve">
<style type="text/css">
	.st0{fill:#D11242;}
	.st1{fill:#455560;}
	.st2{font-family:'Gotham-Book';}
	.st3{font-size:7.6321px;}
</style>
<g>
	<path class="st0" d="M65,0.2c-6.5,0-11.8,5.3-11.8,11.8S58.5,23.8,65,23.8S76.8,18.5,76.8,12S71.5,0.2,65,0.2z M70.3,16.8l-2.4,1.8
		l-3-4.1l-2.8,4.1l-2.5-1.8l3-3.9L58,11.3l1-2.8l4.5,1.8V5.4h3.1v4.9l4.5-1.8l0.9,2.8l-4.8,1.6L70.3,16.8z"/>
</g>
<g>
	<g>
		<path class="st1" d="M0.8,29.2h9c2.2,0,3.8,0.6,4.8,1.6c0.7,0.7,1.1,1.6,1.1,2.8v0c0,2-1.2,3.2-2.7,3.9c2.1,0.7,3.5,1.9,3.5,4.3
			V42c0,3-2.5,4.9-6.7,4.9H0.8L0.8,29.2L0.8,29.2z M8.6,36.3c1.5,0,2.3-0.5,2.3-1.5v-0.1c0-1-0.8-1.5-2.2-1.5H5.5v3.1H8.6L8.6,36.3z
			 M9.3,42.9c1.5,0,2.3-0.6,2.3-1.6v-0.1c0-1-0.8-1.6-2.4-1.6H5.5v3.2H9.3L9.3,42.9z"/>
	</g>
	<g>
		<path class="st1" d="M46.1,29.2h4.6l7.2,9.3v-9.3h4.8v17.6h-4.3l-7.5-9.7v9.7h-4.8L46.1,29.2L46.1,29.2z"/>
	</g>
	<g>
		<path class="st1" d="M33.6,46.8h-5.3l12.4-17.6h4.3v17.6h-4.4v-2.6h-5.3L33.6,46.8z M40.6,40.6v-4.1l-2.8,4.1H40.6L40.6,40.6z"/>
	</g>
	<g>
		<path class="st0" d="M102,29.2h4.4v11.2l7.8-11.2h5.2l-12.3,17.6H102L102,29.2L102,29.2z"/>
	</g>
	<g>
		<g>
			<path class="st1" d="M63.9,29.2h6.8c6.3,0,9.9,3.6,9.9,8.7V38c0,5.1-3.7,8.9-10,8.9h-6.7V29.2z M70.8,42.5c2.9,0,4.9-1.6,4.9-4.5
				v0c0-2.8-1.9-4.5-4.9-4.5h-2v9H70.8L70.8,42.5z"/>
		</g>
	</g>
	<g>
		<path class="st0" d="M81.4,29.2h4.9v13.3h8.5v4.3H81.4V29.2z"/>
	</g>
	<g>
		<path class="st0" d="M96,29.2h4.9v17.6H96V29.2z"/>
	</g>
	<g>
		<path class="st1" d="M22.1,41.5h2.1l3.1,4.7l2.8-4.1l-1-1.4c2.2-0.9,3.6-2.7,3.6-5.4v-0.1c0-1.7-0.5-3.1-1.6-4.1
			c-1.2-1.2-3-1.9-5.7-1.9h-8.3v17.6h4.9L22.1,41.5L22.1,41.5z M22.1,33.5h3.2c1.6,0,2.6,0.7,2.6,2.1v0.1c0,1.3-1,2.1-2.6,2.1h-3.2
			L22.1,33.5L22.1,33.5z"/>
	</g>
	<g>
		<polygon class="st0" points="119.8,39.9 128.3,39.9 128.3,36.1 119.8,36.1 119.8,33.4 129.1,33.4 129.1,29.2 120.9,29.2 115,37.7 
			115,46.9 129.3,46.9 129.3,42.7 119.8,42.7 		"/>
	</g>
</g>
<text transform="matrix(1 0 0 1 45.5107 57.5199)" class="st1 st2 st3">BY INFRACOMMERCE</text>
</svg>
