
<svg xmlns="http://www.w3.org/2000/svg" xml:space="preserve"  version="1.1" style="shape-rendering:geometricPrecision; text-rendering:geometricPrecision; image-rendering:optimizeQuality; fill-rule:evenodd; clip-rule:evenodd"
viewBox="0 0 281.08 101.77"
 xmlns:xlink="http://www.w3.org/1999/xlink"
 xmlns:xodm="http://www.corel.com/coreldraw/odm/2003">

 <g id="Capa_x0020_1">
  <metadata id="CorelCorpID_0Corel-Layer"/>
  <path fill="currentcolor" d="M-0 8.06l0 87.51c0,0 4.87,4.48 11.11,4.68 6.24,0.2 11.69,-5.07 11.69,-5.07l0.39 -24.36c0,0 23,0.19 30.79,-0.58 7.8,-0.78 21.59,-19 18.87,-36.54 -2.73,-17.54 -7.95,-28.75 -21.79,-31.67 -13.84,-2.92 -37.23,-1.76 -43.85,0.19 -6.63,1.95 -7.21,5.85 -7.21,5.85zm23.73 14.95l0 28.23c9.74,1 23.71,2.69 26.19,-8.72 0.96,-4.44 1.16,-9.46 0.53,-12.43 -1.01,-4.72 -5.9,-9.02 -16.26,-9.27 -10.36,-0.25 -15.59,-0.17 -15.59,-0.17l5.14 2.36zm59.24 4.91c0,0 -0.74,50.42 0.74,55.14 1.47,4.72 10.47,16.95 23.59,18.58 13.12,1.62 26.54,-11.35 26.54,-11.35 0,0 4.72,9.58 13.12,10.02 8.4,0.44 13.12,-4.57 15.04,-8.99 2.38,-5.5 2.32,-13.18 -5.13,-13.29 -2.9,-0.04 -6.08,0.76 -6.08,0.76l6.49 -1.92 0 -46.88c0,0 -5.75,-7.96 -14.6,-6.63 -8.85,1.33 -11.06,6.63 -11.06,6.63l0 41.28c0,0 -6.19,8.55 -13.27,8.26 -7.08,-0.29 -12.09,-6.63 -12.09,-6.63l0 -44.23c0,0 -5.45,-5.9 -13.27,-5.31 -7.81,0.59 -10.02,4.57 -10.02,4.57zm91.47 23.38l0 0.81 0 43.11c0,0 0.39,5.6 10.71,5.31 10.32,-0.29 11.94,-3.54 11.94,-3.54l0 -44.83 25.51 0 0 37.9c0,0 4.28,8.11 9.29,10.03 5.01,1.92 13.42,-0.15 13.42,-0.15 0,0 6.93,-2.51 7.67,-9.29 0.74,-6.78 -0.74,-11.21 -0.74,-11.21l-11.35 0 5.6 -3.69 0 -39.22c0,0 1.95,-3.88 -9.88,-4.66 -11.83,-0.78 -38.88,0 -38.88,0 0,0 -1.28,-9.41 0.38,-11.2 1.66,-1.79 6.57,-0.77 7.08,0.32 0.51,1.08 0,3.63 0,3.63l12.94 0c0,0 3.32,-14.19 -3.73,-18.94 -7.05,-4.74 -12.95,-5.39 -16.54,-5.39 -9.96,0 -19.97,5.35 -22.06,16.16 -1.54,7.95 -1.03,15.13 -1.03,15.13 0,0 -9.75,-0.26 -10.77,2.69 -1.03,2.95 -2.82,10.9 -0.64,14.49 2.18,3.59 3.98,3.33 3.98,3.33l7.1 -0.81zm59.97 -50.95c6.48,0 11.73,5.25 11.73,11.73 0,6.48 -5.25,11.73 -11.73,11.73 -6.48,0 -11.73,-5.25 -11.73,-11.73 0,-6.48 5.25,-11.73 11.73,-11.73zm36.96 -0.34c5.37,0 9.71,4.35 9.71,9.71 0,5.37 -4.35,9.71 -9.71,9.71 -5.37,0 -9.71,-4.35 -9.71,-9.71 0,-5.37 4.35,-9.71 9.71,-9.71zm0 2.23c4.13,0 7.48,3.35 7.48,7.48 0,4.13 -3.35,7.48 -7.48,7.48 -4.13,0 -7.48,-3.35 -7.48,-7.48 0,-4.13 3.35,-7.48 7.48,-7.48zm-4.51 12.49l0 -10.02 4.26 0c1.07,0 1.85,0.09 2.33,0.27 0.49,0.18 0.87,0.5 1.17,0.96 0.29,0.46 0.44,0.99 0.44,1.58 0,0.75 -0.22,1.37 -0.66,1.86 -0.44,0.49 -1.1,0.8 -1.98,0.93 0.44,0.25 0.8,0.53 1.08,0.84 0.28,0.31 0.67,0.85 1.15,1.63l1.22 1.95 -2.42 0 -1.45 -2.19c-0.52,-0.78 -0.88,-1.27 -1.07,-1.47 -0.19,-0.2 -0.39,-0.34 -0.61,-0.42 -0.22,-0.07 -0.56,-0.11 -1.02,-0.11l-0.41 0 0 4.18 -2.03 0zm2.03 -5.78l1.5 0c0.97,0 1.57,-0.04 1.82,-0.12 0.24,-0.08 0.43,-0.22 0.57,-0.42 0.14,-0.2 0.2,-0.45 0.2,-0.75 0,-0.34 -0.09,-0.61 -0.27,-0.82 -0.18,-0.21 -0.43,-0.34 -0.76,-0.39 -0.17,-0.02 -0.66,-0.04 -1.48,-0.04l-1.58 0 0 2.55z"/>
 </g>
</svg>
