<?xml version="1.0" standalone="no"?>
<!DOCTYPE svg PUBLIC "-//W3C//DTD SVG 20010904//EN"
 "http://www.w3.org/TR/2001/REC-SVG-20010904/DTD/svg10.dtd">
<svg version="1.0" xmlns="http://www.w3.org/2000/svg"
 width="535.000000pt" height="195.000000pt" viewBox="0 0 535.000000 195.000000"
 preserveAspectRatio="xMidYMid meet">
<metadata>
Created by potrace 1.16, written by Peter Selinger 2001-2019
</metadata>
<g transform="translate(0.000000,195.000000) scale(0.100000,-0.100000)"
fill="#fff">
<path d="M5096 1936 c-49 -19 -102 -70 -117 -114 -19 -57 -7 -137 27 -179 46
-56 88 -75 160 -71 124 7 205 114 174 230 -29 109 -142 171 -244 134z m125
-61 c93 -48 90 -194 -5 -239 -45 -21 -84 -20 -124 4 -70 43 -90 127 -46 195
l19 29 3 -102 c2 -94 4 -102 22 -102 17 0 20 7 20 40 0 22 5 40 10 40 10 0 18
-8 57 -58 13 -17 27 -23 46 -20 l27 3 -25 38 c-24 34 -25 39 -11 53 9 8 16 28
16 44 0 41 -32 60 -100 60 -51 1 -53 2 -36 15 26 19 89 19 127 0z"/>
<path d="M340 1934 c-205 -24 -280 -48 -318 -102 l-22 -30 0 -840 0 -841 30
-21 c99 -70 216 -84 311 -37 107 54 99 31 106 293 l6 231 292 6 c317 6 326 8
400 67 131 104 238 317 252 502 10 133 -38 363 -104 497 -73 146 -181 224
-358 257 -86 16 -504 28 -595 18z m414 -405 c77 -16 155 -64 184 -114 21 -37
23 -49 19 -155 -4 -133 -22 -186 -80 -237 -60 -53 -159 -71 -321 -58 l-96 7 0
269 0 270 -32 14 c-30 13 -21 14 118 15 83 0 176 -5 208 -11z"/>
<path d="M3633 1925 c-152 -43 -247 -130 -288 -265 -9 -32 -19 -109 -22 -181
l-6 -127 -79 -10 c-43 -5 -89 -17 -102 -26 -31 -19 -50 -100 -51 -208 0 -71 2
-79 31 -115 l32 -38 81 2 81 1 0 -416 c0 -477 -2 -464 84 -497 69 -26 235 -18
302 16 l49 24 3 433 2 432 240 0 240 0 0 -367 1 -368 42 -59 c85 -119 156
-149 311 -129 95 11 145 37 190 96 33 43 50 132 41 212 -12 111 -4 104 -113
107 l-96 3 42 28 42 27 0 388 c0 213 -4 392 -8 399 -31 49 -231 67 -634 60
l-288 -6 0 94 c0 107 10 125 66 125 54 0 74 -15 74 -55 l0 -35 124 0 c147 0
139 -8 139 140 1 167 -48 234 -221 298 -85 31 -231 39 -309 17z"/>
<path d="M4386 1930 c-154 -49 -209 -257 -98 -373 89 -94 245 -94 334 0 93 98
71 275 -44 346 -51 31 -139 44 -192 27z"/>
<path d="M2710 1503 c-65 -11 -127 -39 -167 -76 l-43 -40 0 -399 0 -400 -54
-53 c-124 -120 -240 -126 -371 -19 l-45 36 0 423 0 423 -31 27 c-60 50 -109
68 -194 73 -64 3 -91 0 -136 -17 -100 -38 -94 -10 -97 -435 -1 -204 1 -441 6
-526 9 -184 21 -214 120 -321 227 -245 505 -255 792 -27 l54 44 32 -46 c17
-25 53 -62 79 -82 192 -146 468 7 453 251 -4 57 -8 67 -36 92 -25 23 -43 29
-80 30 -36 1 -41 3 -22 8 l25 7 3 451 2 450 -46 43 c-69 63 -166 97 -244 83z"/>
</g>
</svg>
