<?xml version="1.0" encoding="UTF-8"?>
<!DOCTYPE svg PUBLIC "-//W3C//DTD SVG 1.1//EN" "http://www.w3.org/Graphics/SVG/1.1/DTD/svg11.dtd">
<!-- Creator: CorelDRAW 2021 (64-Bit) -->
<svg xmlns="http://www.w3.org/2000/svg" xml:space="preserve" width="8.49996in" height="6.90354in" version="1.1" style="shape-rendering:geometricPrecision; text-rendering:geometricPrecision; image-rendering:optimizeQuality; fill-rule:evenodd; clip-rule:evenodd"
viewBox="0 0 940.65 763.98"
 xmlns:xlink="http://www.w3.org/1999/xlink"
 xmlns:xodm="http://www.corel.com/coreldraw/odm/2003">
 <defs>
  <style type="text/css">
   <![CDATA[
    .fil0 {fill:#FEFEFE;fill-rule:nonzero}
   ]]>
  </style>
 </defs>
 <g id="Capa_x0020_1">
  <metadata id="CorelCorpID_0Corel-Layer"/>
  <path class="fil0" d="M843.96 190.4c0.6,8.36 0.6,16.71 0.6,25.07 0,254.86 -193.98,548.52 -548.52,548.52 -109.23,0 -210.69,-31.64 -296.04,-86.54 15.52,1.79 30.44,2.39 46.56,2.39 90.12,0 173.09,-30.44 239.34,-82.37 -84.75,-1.79 -155.78,-57.3 -180.25,-133.7 11.94,1.79 23.87,2.98 36.41,2.98 17.31,0 34.62,-2.39 50.73,-6.56 -88.34,-17.91 -154.59,-95.5 -154.59,-189.21l0 -2.39c25.66,14.32 55.51,23.28 87.14,24.47 -51.93,-34.62 -85.95,-93.71 -85.95,-160.56 0,-35.81 9.55,-68.64 26.26,-97.29 94.9,116.99 237.55,193.38 397.51,201.74 -2.98,-14.32 -4.77,-29.24 -4.77,-44.17 0,-106.24 85.95,-192.79 192.79,-192.79 55.51,0 105.64,23.28 140.86,60.88 43.57,-8.36 85.35,-24.47 122.36,-46.56 -14.33,44.77 -44.77,82.37 -84.75,106.24 38.8,-4.18 76.4,-14.92 111.02,-29.84 -26.26,38.2 -59.09,72.22 -96.69,99.67l0 -0z"/>
 </g>
</svg>
